<?xml version="1.0" encoding="UTF-8"?>
<svg xmlns="http://www.w3.org/2000/svg" xmlns:xlink="http://www.w3.org/1999/xlink" width="2836" height="2835" viewBox="0 0 2836 2835">
<path fill-rule="evenodd" fill="rgb(100%, 100%, 100%)" fill-opacity="1" d="M 1 0.351562 L 2835.640625 0.351562 L 2835.640625 2835 L 1 2835 L 1 0.351562 "/>
<path fill-rule="evenodd" fill="rgb(0%, 0%, 0%)" fill-opacity="1" d="M 1449.328125 2194.277344 C 1370.289062 2146.824219 1288.210938 2135.414062 1192.769531 2149.414062 C 1149.71875 2155.734375 1108.460938 2168.570312 1074.429688 2186.320312 C 1042.609375 2202.921875 1003.019531 2232.007812 987.371094 2254.921875 C 998.214844 2265.492188 1027.230469 2282.550781 1042.800781 2292.035156 C 1079.070312 2314.128906 1088.851562 2310.757812 1090.488281 2333.773438 C 1092.640625 2364.058594 1094.371094 2390.84375 1092.648438 2421.414062 C 1091.148438 2448.074219 1091.488281 2478.160156 1106 2494.882812 C 1122.5 2513.894531 1153.550781 2510.769531 1172.878906 2495.285156 C 1246.761719 2436.132812 1206.839844 2294.703125 1212 2279.753906 C 1231.109375 2280.640625 1247.078125 2318.328125 1252.589844 2340.710938 C 1259.800781 2369.964844 1261.109375 2404.636719 1256.460938 2435.328125 C 1253.710938 2453.484375 1246.449219 2476.816406 1236.929688 2492.320312 C 1234.261719 2496.671875 1228.449219 2504.054688 1226.898438 2507.351562 C 1218.949219 2524.285156 1241.359375 2558.5 1267.96875 2564.617188 C 1299.820312 2571.941406 1321.789062 2546.710938 1332.261719 2528.339844 C 1344.660156 2506.585938 1351.179688 2476.917969 1354.058594 2448.410156 C 1364.988281 2340.453125 1340.21875 2301.53125 1338.171875 2263.960938 C 1350.320312 2265.246094 1358.539062 2278.550781 1364.628906 2287.925781 C 1384.519531 2318.527344 1395.128906 2362.722656 1398.28125 2400.304688 C 1400.75 2429.847656 1399.589844 2462.296875 1393.960938 2490.546875 C 1385.269531 2534.160156 1371.761719 2544.078125 1366.929688 2560.015625 C 1396.441406 2581.441406 1430.910156 2562.660156 1448.890625 2543.476562 C 1493.03125 2496.371094 1498.238281 2413.824219 1490.75 2349.234375 C 1483.789062 2289.132812 1469.410156 2279.949219 1464.328125 2255.832031 C 1488.769531 2258.1875 1508.628906 2292.085938 1517.371094 2315.101562 C 1533.210938 2356.796875 1529.449219 2389.769531 1539.828125 2403.640625 C 1576.230469 2452.289062 1643.160156 2473.3125 1655.398438 2381.039062 C 1664.03125 2315.996094 1640.691406 2245.667969 1608.109375 2209.105469 C 1566.441406 2162.347656 1509.621094 2157.953125 1449.328125 2194.277344 Z M 2070.328125 329.511719 L 2048.949219 329.511719 C 2021.828125 330.28125 1994.691406 334.011719 1967.980469 340.96875 C 1942.050781 347.730469 1912.359375 362.921875 1893.949219 377.949219 C 1870.148438 397.378906 1859.070312 410.769531 1842.761719 437.761719 C 1809.828125 492.269531 1805.320312 556.199219 1805.320312 622.339844 C 1759.25 653.191406 1732.589844 693.429688 1732.589844 754.398438 C 1720.039062 747.761719 1709.789062 739.578125 1698.429688 731.140625 C 1654.988281 698.878906 1602.949219 671.398438 1554.589844 647.21875 C 1461.5 600.679688 1359.910156 564.46875 1255.679688 551.871094 C 1159.011719 540.179688 1050.328125 543.898438 968.546875 593.25 C 956.355469 600.601562 945.199219 607.578125 933.914062 616.03125 C 857.777344 673.058594 804.3125 754.789062 763.476562 839.859375 C 726.453125 917 696.65625 1013.921875 682.363281 1097.519531 L 666.292969 1196.28125 C 665.28125 1201.960938 660.929688 1210.839844 658.21875 1216.921875 C 616 1311.5 591.128906 1419.550781 586.140625 1526.171875 L 586.140625 1604.941406 C 586.875 1620.230469 588.035156 1635.421875 589.644531 1650.441406 C 593.917969 1690.300781 600.039062 1734.308594 608.710938 1771.101562 C 638.34375 1896.828125 693.480469 2015.992188 773.960938 2116.867188 C 790.503906 2137.605469 806.855469 2159.125 825.84375 2177.902344 C 854.335938 2206.070312 882.847656 2232.820312 912.996094 2259.175781 C 932.984375 2276.648438 955.472656 2292.621094 977.726562 2307.367188 C 990.160156 2315.605469 1000.320312 2322.09375 1012.859375 2329.652344 L 1047.398438 2350.617188 C 1047.398438 2378.289062 1051.589844 2411.773438 1049.210938 2440.472656 C 1046.410156 2474.386719 1047.519531 2491.953125 1062.28125 2515.644531 C 1073.351562 2533.394531 1092.519531 2548.300781 1115.578125 2554.214844 C 1135.261719 2559.265625 1154.300781 2556.878906 1173.460938 2549.410156 C 1179.46875 2547.070312 1181.28125 2544.570312 1189.03125 2543.925781 C 1189.308594 2556.667969 1200.839844 2579.046875 1207.011719 2587.195312 C 1227.148438 2613.832031 1260.761719 2622.503906 1293.589844 2614.03125 C 1312.601562 2609.128906 1325.191406 2598.082031 1334.488281 2595.601562 C 1345.078125 2603.359375 1353.78125 2619.210938 1379.261719 2622.394531 L 1399.140625 2622.394531 C 1400.378906 2622.265625 1401.640625 2622.117188 1402.941406 2621.941406 C 1429.878906 2618.273438 1450.78125 2606.515625 1469.308594 2592.621094 C 1502.699219 2567.59375 1533.539062 2510.394531 1533.539062 2465.453125 C 1546.441406 2474.09375 1554.398438 2483.730469 1570.128906 2490.105469 C 1620.269531 2510.433594 1665.371094 2487.84375 1686.320312 2438.660156 C 1687.808594 2431.914062 1697.738281 2431.4375 1704.648438 2429.742188 C 1725.25 2424.683594 1749.671875 2417.121094 1769.25 2410.203125 C 1797.75 2400.125 1822.308594 2388.636719 1849.339844 2378.367188 C 1860.46875 2379.789062 1907.871094 2349.566406 1920.160156 2342.964844 C 1931.378906 2336.933594 1942.121094 2329.289062 1953.058594 2322.277344 C 1985.238281 2301.632812 2017.351562 2279.957031 2045.980469 2254.429688 C 2051.53125 2249.480469 2055.019531 2247.285156 2060.339844 2241.992188 C 2065.820312 2236.539062 2069.28125 2235.003906 2074.738281 2229.601562 C 2101.359375 2203.253906 2128.839844 2177.875 2153.089844 2149.089844 C 2186.128906 2109.859375 2214.738281 2069.261719 2242.078125 2025.640625 C 2304.910156 1925.417969 2352.191406 1782.621094 2362.320312 1665.480469 C 2365.171875 1632.621094 2367.898438 1599.480469 2368.019531 1565.898438 C 2368.28125 1488.929688 2354.808594 1406.101562 2335.488281 1332.398438 C 2319.199219 1270.28125 2317.421875 1304.890625 2329.730469 1252.019531 C 2358.359375 1249.640625 2405.820312 1205.378906 2419.480469 1167.601562 C 2435.730469 1122.679688 2435.039062 1067.75 2412.03125 1024.261719 L 2436.53125 991.351562 C 2444.039062 980.039062 2451.019531 969.320312 2457.351562 956.660156 C 2483.75 903.839844 2503.480469 847.558594 2503.898438 784.421875 L 2503.898438 780.398438 C 2503.371094 671.378906 2477.238281 591.398438 2414.78125 508.578125 C 2386.679688 471.320312 2351.960938 442.988281 2314.710938 415.339844 C 2298.589844 403.371094 2279.851562 393.621094 2262.128906 383.710938 C 2255.300781 379.890625 2252.710938 377.601562 2244.71875 374.328125 C 2230.679688 368.589844 2220.410156 363.351562 2205.898438 357.640625 C 2162.691406 340.648438 2116.71875 330.828125 2070.328125 329.511719 Z M 1903.609375 2062.445312 C 1834.101562 2047.179688 1806.988281 2112.894531 1823.890625 2177.03125 C 1831.980469 2207.761719 1843.21875 2226.792969 1858.78125 2245.523438 C 1863.671875 2251.40625 1905.46875 2287.007812 1919.511719 2284.582031 C 1928.421875 2283.039062 1983.21875 2241.011719 1996.238281 2231.496094 C 2002.429688 2226.972656 2004.839844 2225.96875 2005.601562 2216.691406 C 2010.820312 2153.367188 1966.511719 2076.261719 1903.609375 2062.445312 Z M 1801.96875 2344.875 C 1800.289062 2343.050781 1799.039062 2341.609375 1795.78125 2339.105469 C 1764.839844 2315.390625 1746.148438 2281.90625 1732.128906 2243.910156 C 1719 2208.300781 1702.238281 2116.242188 1698.140625 2109.621094 C 1668.140625 2118.082031 1641.851562 2134.824219 1615.660156 2146.074219 C 1624.808594 2162.265625 1709.75 2216.976562 1700.738281 2380.082031 C 1721.699219 2376.171875 1788.101562 2354.460938 1801.96875 2344.875 Z M 1251.230469 1984.101562 C 1227.199219 1979.734375 1204.699219 1976.542969 1181.359375 1971.554688 C 1141.351562 1962.996094 1153.558594 1958.976562 1123.851562 1979.21875 C 1110.21875 1988.5 1113.078125 1987.707031 1112.308594 2008.015625 C 1110.75 2049.453125 1110.710938 2085.375 1111.101562 2127.003906 C 1120.449219 2126.128906 1137.539062 2119.441406 1148.300781 2116.664062 C 1202.070312 2102.777344 1220.480469 2106.734375 1272.851562 2103.429688 C 1269.5 2084.9375 1264.089844 2065.207031 1260.511719 2045.832031 C 1256.941406 2026.515625 1255.621094 2002.089844 1251.230469 1984.101562 Z M 953.617188 2229.804688 C 962.425781 2224 970.097656 2214.4375 979.367188 2206.078125 C 987.355469 2198.875 998.195312 2191.320312 1007.339844 2184.230469 C 1025.820312 2169.910156 1063.039062 2149.957031 1067 2145.820312 L 1068.949219 2025.296875 C 1036.679688 2042.378906 947.019531 2161.242188 926.476562 2207.074219 C 930.929688 2212.808594 946.800781 2225.863281 953.617188 2229.804688 Z M 2050.589844 2042.792969 C 2055.808594 2057.527344 2066.449219 2075.984375 2073.109375 2092.371094 C 2077.878906 2104.140625 2085.78125 2136.359375 2092.449219 2143.855469 C 2097.800781 2135.554688 2104.648438 2130.6875 2111.050781 2122.34375 C 2117.148438 2114.382812 2124.039062 2108.769531 2129.828125 2099.714844 L 2110.171875 2047.21875 Z M 1690.199219 2064.070312 C 1688.078125 2046.128906 1671.078125 1960.023438 1663.558594 1950.851562 C 1588.53125 2024.277344 1497.378906 2057.867188 1389.871094 2035.089844 C 1339.078125 2024.324219 1319.570312 2009.734375 1295.390625 2003.496094 C 1298.550781 2031.53125 1309.570312 2082.160156 1318.421875 2106.214844 C 1330.148438 2110.953125 1356.628906 2113.117188 1371.191406 2116.710938 C 1387.859375 2120.820312 1403.570312 2125.707031 1419.128906 2131.996094 C 1456.921875 2147.269531 1444.878906 2148.929688 1462.761719 2140.128906 C 1498.539062 2122.515625 1526.730469 2118.003906 1565.5 2123.519531 C 1574.980469 2124.871094 1579.351562 2119.417969 1586.898438 2114.992188 C 1629.230469 2090.183594 1649.359375 2083.472656 1690.199219 2064.070312 Z M 2058 2178.769531 C 2044.570312 2081.742188 1957.828125 1973.792969 1903.089844 1908.382812 C 1883.558594 1885.046875 1841.578125 1840.492188 1820.949219 1822.039062 C 1809.078125 1811.429688 1789.328125 1790.261719 1776.609375 1782.320312 C 1771.050781 1786.550781 1756.199219 1802.699219 1752.660156 1809.929688 C 1738.519531 1838.855469 1742.378906 1842.191406 1719.191406 1879.8125 C 1716.019531 1884.949219 1699.480469 1908.28125 1698.601562 1911.1875 C 1697.660156 1914.296875 1731.320312 2061.242188 1734.859375 2078.574219 C 1748.761719 2146.457031 1770.949219 2254.070312 1819.621094 2301.878906 C 1824.71875 2306.890625 1841.140625 2322.347656 1849.570312 2322.796875 C 1854.648438 2323.066406 1876.640625 2310.695312 1881.808594 2306.597656 C 1877.890625 2302.226562 1871 2299.382812 1865.761719 2295.90625 C 1859.800781 2291.953125 1856.808594 2289.222656 1851.628906 2285.164062 C 1825.671875 2264.851562 1804.121094 2227.8125 1793.769531 2193.714844 C 1743.808594 2029.046875 1929.441406 1953.144531 2015.050781 2117.945312 C 2027.398438 2141.707031 2034.109375 2165.859375 2036.289062 2196.820312 Z M 2168.03125 2049.195312 C 2182.859375 2030.765625 2196.929688 2005.234375 2209.550781 1983.507812 C 2317.621094 1797.53125 2341.410156 1581.578125 2294.878906 1370.660156 C 2287.851562 1381.488281 2268.898438 1443.640625 2261.929688 1461.738281 C 2212.828125 1589.359375 2171.410156 1681.421875 2104.519531 1800.050781 C 2077.21875 1848.453125 2073.570312 1839.40625 2082.96875 1858.535156 C 2098.351562 1889.851562 2118.609375 1933.484375 2131.871094 1964.746094 C 2137.25 1977.425781 2164.269531 2043.097656 2168.03125 2049.195312 Z M 790.238281 1497.699219 C 738.546875 1487.621094 707.578125 1516.910156 696.789062 1557.839844 C 676.714844 1634.011719 713.464844 1730.980469 785.371094 1774.359375 C 813.394531 1791.269531 874.574219 1809.539062 914.632812 1800.960938 C 908.589844 1783.191406 901.835938 1767.390625 896.574219 1747.421875 C 887.90625 1714.53125 891.65625 1691.78125 879.796875 1685.730469 C 878.636719 1685.128906 875.71875 1684.148438 874.242188 1683.558594 C 850.167969 1674.019531 834.242188 1650.351562 823.066406 1627.488281 C 816.023438 1613.078125 816.195312 1606.429688 792.5625 1596.859375 C 773.148438 1589 753.300781 1592.78125 740.785156 1587.691406 C 742.433594 1564.261719 783.277344 1562.710938 801.027344 1564.421875 Z M 708.832031 1470.210938 C 696.234375 1455.070312 688.082031 1446.898438 677.066406 1425.191406 C 672.472656 1416.140625 669.414062 1407.199219 666.601562 1397.339844 C 663.828125 1387.628906 663.070312 1374.660156 659.230469 1366.421875 C 651.597656 1406.898438 642.972656 1441.808594 638.898438 1485.121094 C 634.808594 1528.621094 633.695312 1573.429688 636.113281 1617.640625 C 643.726562 1756.808594 693.054688 1918.570312 769.304688 2027.726562 C 787.492188 2053.761719 820.53125 2102.867188 842.539062 2124.84375 C 854.203125 2136.488281 879.109375 2167.539062 892.804688 2176.121094 C 907.710938 2153.410156 917.578125 2135.316406 934.933594 2109.902344 C 942.457031 2098.882812 950.28125 2089.5 957.898438 2079.296875 C 975.394531 2055.855469 1000.179688 2029.253906 1021.730469 2009.121094 C 1043.75 1988.550781 1066.351562 1965.984375 1094.789062 1948.4375 C 1090.390625 1944.964844 1056.800781 1932.710938 1048.140625 1928.835938 C 1016.910156 1914.859375 952.632812 1876.601562 938.554688 1843.351562 C 924.730469 1844.800781 912.941406 1848.839844 898.191406 1849.265625 C 859.789062 1850.367188 817.136719 1840.632812 784.039062 1825.351562 C 650.238281 1763.539062 608.402344 1554.808594 697.21875 1479.890625 Z M 893.238281 1534.238281 C 920.355469 1508.601562 907.269531 1468.890625 889.648438 1453.820312 C 870.988281 1437.859375 855.476562 1432.75 836.808594 1409.019531 C 832.5 1403.539062 828.277344 1395.238281 823.957031 1389.941406 C 818.800781 1446.011719 828.066406 1598.058594 868.085938 1636.121094 C 879.136719 1646.621094 897.898438 1649.679688 905.054688 1632.160156 C 916.363281 1604.46875 897.195312 1559.660156 884.757812 1542.941406 Z M 2268.210938 1268.820312 C 2235.171875 1270.621094 2209.25 1274.03125 2174.621094 1272.808594 C 2088.191406 1269.761719 2016.859375 1255.390625 1943.738281 1218.21875 C 1936.539062 1239.980469 1930.96875 1265.558594 1925.101562 1287.539062 C 1919.789062 1307.378906 1886.339844 1413.679688 1888.230469 1423.5 C 1893.539062 1451.140625 1898.640625 1467.519531 1898.621094 1498.921875 C 1898.589844 1549.988281 1884.75 1599.851562 1866.820312 1640.851562 C 1858.191406 1660.589844 1847.78125 1680.261719 1837.359375 1697.488281 C 1830.890625 1708.191406 1805.410156 1744.289062 1803.261719 1749.640625 C 1809.660156 1755.390625 1814.558594 1760.941406 1821 1766.488281 L 1939.269531 1885.5 C 1954.171875 1901.972656 1987.410156 1942.621094 1999.96875 1960.746094 C 2003.839844 1966.332031 2024.828125 1998.761719 2027.460938 2000.007812 C 2031.339844 2001.847656 2084.011719 2002.953125 2092.609375 2003.152344 C 2088.789062 1988.175781 2060.761719 1926.816406 2052.570312 1910.109375 C 2044.941406 1894.550781 2039.101562 1880.023438 2030.839844 1864.820312 C 2016.761719 1838.929688 2017.75 1846.003906 2032.789062 1824.011719 C 2115.960938 1702.359375 2192.449219 1513.910156 2238.410156 1369.320312 C 2247.640625 1340.289062 2263.351562 1297.761719 2268.210938 1268.820312 Z M 1743.191406 1228.019531 C 1746.011719 1252.121094 1744.519531 1258.699219 1756.070312 1278.25 C 1762.019531 1288.300781 1777.371094 1306.589844 1793.789062 1304.210938 C 1848.011719 1296.339844 1752.300781 1088.738281 1702.371094 1051.351562 C 1704.691406 1140.769531 1660.199219 1220.261719 1743.191406 1228.019531 Z M 1858.839844 1064.328125 C 1819.828125 1055.75 1796.921875 1074.800781 1784.03125 1097.03125 L 1813.609375 1157.550781 C 1821.289062 1149.191406 1834.378906 1125.269531 1850.078125 1134.558594 C 1853.730469 1144.730469 1841.339844 1167.78125 1837.878906 1179.390625 C 1824.550781 1224.070312 1842.960938 1218.410156 1844.101562 1278.808594 C 1844.589844 1304.550781 1838.800781 1309.820312 1835.398438 1329.480469 C 1844.699219 1334.269531 1852.511719 1351.589844 1860.820312 1360.578125 C 1867.140625 1351.320312 1890.511719 1229.410156 1894.808594 1207.5 C 1899.339844 1184.410156 1902.449219 1187.070312 1890.339844 1172.730469 C 1864.929688 1142.648438 1857.421875 1105.410156 1858.839844 1064.328125 Z M 1544.671875 1024.980469 C 1529.921875 1019.410156 1524.910156 999.511719 1488.128906 981.589844 C 1463.769531 969.710938 1434.601562 966.5 1406.679688 975.890625 C 1348.75 995.378906 1329.761719 1055.328125 1313.539062 1077.25 C 1300.75 1063.820312 1313.179688 1007.210938 1314.71875 988.53125 C 1227.210938 986.058594 1153.980469 1013.328125 1103.828125 1055.800781 C 1107.601562 1058.578125 1117.019531 1067.960938 1120.710938 1071.53125 C 1133.699219 1084.078125 1157.671875 1111.550781 1161.398438 1130.519531 C 1140.351562 1125.230469 1128.699219 1115.25 1091.671875 1108.050781 C 1045.128906 1099 988.972656 1108.761719 968.070312 1155.429688 C 953.605469 1187.730469 962.558594 1202.261719 956.589844 1232.019531 C 949.070312 1226.460938 950.640625 1222.328125 943.632812 1216.941406 C 937.914062 1233.769531 918.089844 1253.621094 904.285156 1262.019531 C 878.558594 1277.660156 868.410156 1274.199219 837.675781 1277.710938 C 831.632812 1315.820312 826.953125 1329.539062 844.5 1361.140625 C 858.976562 1387.210938 872.644531 1397.570312 894.867188 1414.101562 C 914.214844 1428.480469 932.078125 1441.828125 939.859375 1472.488281 C 947.914062 1504.21875 937.554688 1539.25 916.640625 1548.289062 C 922.839844 1562.859375 933.386719 1567.359375 939.203125 1599.328125 C 942.703125 1618.570312 942.242188 1643.421875 935.402344 1660.679688 C 928.839844 1677.261719 921.234375 1664.160156 933.148438 1716.640625 C 955.542969 1815.269531 1001.21875 1862.527344 1101.460938 1902.308594 C 1190.921875 1937.808594 1246.738281 1935.449219 1274.121094 1944.132812 C 1274.851562 1944.363281 1307.28125 1962.316406 1320.929688 1967.980469 C 1475.148438 2031.921875 1620.410156 1975.566406 1696.851562 1828.730469 C 1716.691406 1790.621094 1707.21875 1789.609375 1727.941406 1769.921875 C 1731.089844 1766.921875 1733.171875 1764.230469 1735.988281 1760.691406 C 1741.050781 1754.320312 1746.511719 1748.539062 1751.890625 1742.121094 C 1773.25 1716.640625 1791.949219 1690.648438 1809.679688 1658.300781 C 1858.179688 1569.851562 1882.078125 1446.320312 1807.238281 1359.230469 C 1798.179688 1348.679688 1802.660156 1349.171875 1787.058594 1344.988281 C 1756.519531 1336.808594 1728.359375 1302.769531 1726.390625 1263.960938 C 1620.679688 1241.640625 1675.238281 1145.078125 1666.738281 1030.351562 C 1664.53125 1000.5 1645.351562 997.128906 1623.828125 973.03125 C 1613.128906 978.121094 1604.941406 986.871094 1588.628906 993.21875 C 1573.890625 998.980469 1559.710938 1001.101562 1542.511719 1001.5 Z M 1588.558594 945.46875 C 1567.21875 926.210938 1523.851562 901.839844 1492.441406 887.300781 C 1370.570312 830.910156 1229.839844 828.621094 1109.578125 881.710938 C 1001.339844 929.5 927.972656 1017.628906 883.867188 1119.070312 C 871.03125 1148.589844 851.203125 1201.488281 846.316406 1235.410156 C 880.585938 1233.078125 903.488281 1208.441406 916.746094 1188.351562 C 931.539062 1165.941406 925.09375 1173.21875 920.417969 1145.609375 C 917.542969 1128.640625 916.902344 1111 920.429688 1094.300781 C 927.28125 1061.859375 947.109375 1041.480469 972.644531 1029.910156 C 1020.621094 1008.171875 1046.859375 1028.769531 1068.890625 1032.148438 C 1089.300781 1008.140625 1137.988281 980.730469 1177.691406 966.980469 C 1242.671875 944.480469 1269 950.261719 1328.75 946.761719 C 1335.050781 938.589844 1339.78125 927.628906 1346.210938 919.210938 C 1381.589844 872.949219 1455.289062 868.941406 1495.21875 911.371094 C 1503.421875 920.078125 1507.789062 924.019531 1515.148438 935.488281 C 1519 941.480469 1525.441406 957.859375 1531.621094 961.488281 C 1554.269531 961.421875 1572.890625 954.550781 1588.558594 945.46875 Z M 1349.019531 811.351562 C 1355.511719 736.488281 1318.601562 697.171875 1265.308594 676.179688 C 1211.648438 655.039062 1133.390625 650.179688 1076.089844 668.238281 C 1019.691406 686.011719 982.152344 723.558594 959.140625 771.351562 C 947.628906 795.261719 936.175781 826.488281 935.757812 857.75 C 935.304688 892.019531 949.863281 921.351562 972.757812 930.898438 C 978.96875 927.441406 976.855469 928.019531 982.398438 922.921875 C 1044.550781 865.878906 1147.558594 826.109375 1231.398438 814.210938 C 1284.960938 806.601562 1337.699219 813.148438 1349.019531 811.351562 Z M 1759.378906 1057.898438 C 1766.390625 1053.03125 1772.398438 1043.789062 1781.378906 1036.699219 C 1819.078125 1006.949219 1860.480469 1022.550781 1865.089844 1022.25 C 1868.921875 1022.011719 1869.640625 1024.359375 1871.199219 1017.789062 C 1872.210938 1013.570312 1871.480469 1014.820312 1869.160156 1012.320312 C 1866.039062 1008.949219 1860.75 1006.5 1856.851562 1003.339844 C 1813.179688 967.910156 1782.078125 921.941406 1758.960938 869.640625 C 1742.960938 833.460938 1749.109375 826.851562 1730.640625 813.800781 C 1699.480469 791.769531 1664.25 766.769531 1629.21875 746.75 C 1592.828125 725.960938 1558.480469 706.898438 1518.648438 687.058594 C 1404.449219 630.191406 1238.441406 582.480469 1107.019531 601.941406 C 840.597656 641.378906 736.832031 984.609375 708.53125 1215.671875 C 699.589844 1288.648438 688.851562 1370.980469 731.140625 1430.460938 C 754.046875 1462.671875 763.4375 1453.160156 787.128906 1454.71875 C 787.351562 1395.949219 787.417969 1351.570312 796.804688 1294.070312 C 813.636719 1190.980469 855.335938 1074.339844 917.667969 992.121094 C 927.4375 979.230469 953.710938 950.230469 956.152344 945.28125 C 932.652344 935.289062 912.355469 894.351562 910.59375 862.871094 C 908.636719 827.898438 921.898438 789.539062 935.753906 763.328125 C 963.449219 710.949219 1007.96875 668.109375 1073.71875 646.769531 C 1141.601562 624.730469 1225.859375 629.609375 1286.28125 659.050781 C 1331.929688 681.289062 1365.25 710.839844 1375.390625 759.320312 C 1380.160156 782.078125 1375.03125 800.75 1377.519531 816.539062 C 1482.769531 836.039062 1568.820312 882.421875 1643.371094 941.21875 C 1675.820312 966.808594 1696.53125 984.988281 1724.941406 1016.660156 Z M 2265.980469 1089.699219 C 2268.980469 1077.238281 2289.210938 1072.21875 2299.171875 1066.398438 C 2383.621094 1017.070312 2425.691406 936.261719 2443.621094 835.699219 C 2459.839844 744.699219 2447.53125 647.460938 2397.21875 572.121094 C 2325.980469 465.441406 2204.988281 378.109375 2052.210938 379.5 C 1976.101562 380.191406 1931.558594 398.351562 1900.480469 443.820312 C 1871.910156 485.589844 1852.53125 546.019531 1847.960938 607.980469 C 1869.289062 606.339844 1882.371094 607.28125 1902.929688 607.359375 C 1910.878906 594.289062 1913.378906 553.710938 1954.378906 505.320312 C 1967.320312 490.039062 2025.28125 448.769531 2061.039062 467.871094 C 2057.660156 472.628906 2025.179688 497.019531 2009.109375 514.21875 C 1985.988281 538.980469 1957.210938 581.488281 1948.179688 619.101562 C 1971.511719 624.660156 1988.140625 639.378906 2006.539062 647.53125 C 2021.710938 593.078125 2096.320312 517.859375 2147.679688 536.238281 C 2145.078125 543.660156 2121.421875 560.460938 2114.5 566 C 2087.179688 587.851562 2051.179688 644.269531 2044.371094 680.320312 C 2061.210938 693.28125 2089.289062 728.390625 2097.921875 756.75 L 2102.519531 749.148438 C 2111.550781 729.320312 2111.351562 726.269531 2124.75 704.441406 C 2143.230469 674.339844 2171.96875 642.269531 2205.039062 627.851562 C 2219.710938 621.449219 2252.351562 609.511719 2268.320312 620.421875 C 2264.058594 627.269531 2250.851562 635.519531 2243.621094 641.519531 C 2184.21875 690.808594 2124.808594 769.289062 2143.300781 854.820312 C 2155.378906 910.691406 2214.03125 914.109375 2255.101562 882.609375 C 2268.941406 872 2281.519531 847.148438 2286.53125 822.300781 C 2291.421875 798.109375 2286.5 747.910156 2290.261719 736.078125 C 2315.660156 739.921875 2331.300781 798.800781 2324.359375 840.820312 C 2296.679688 1008.339844 2117.890625 974.398438 2092.800781 878.421875 C 2085.828125 881.761719 2086.671875 883.378906 2080.378906 887.808594 C 2051.101562 908.429688 1992.179688 906.679688 1961.378906 896.941406 C 1939.980469 890.171875 1921.578125 878.769531 1908.488281 867.441406 C 1899.601562 859.738281 1876.46875 834.300781 1878.371094 817.988281 C 1889.761719 817.828125 1919.980469 837.019531 1933.640625 842.351562 C 1966.109375 855.03125 2037.738281 871.460938 2052.898438 827.769531 C 2072.871094 770.238281 2014.140625 708.429688 1964.5 681.289062 C 1928.480469 661.589844 1879.058594 646.929688 1837.171875 669.5 C 1760.558594 710.78125 1787.898438 834.660156 1829.109375 900.941406 C 1860.761719 951.839844 1903.011719 987.378906 1950.421875 1020.800781 C 1958.691406 1026.640625 1992.460938 1045.859375 1994.929688 1054.828125 C 1961.410156 1060.628906 1928.589844 1041.441406 1914.410156 1039.699219 C 1875.769531 1100 1934.878906 1156.328125 1967.851562 1175.601562 C 2015.679688 1203.558594 2067.230469 1217.300781 2131.109375 1224.828125 C 2206.941406 1233.78125 2338.46875 1234.851562 2368.949219 1151.488281 C 2378.351562 1125.808594 2379.25 1084.871094 2365.921875 1063.238281 C 2338.949219 1075.898438 2307.941406 1098.550781 2265.980469 1089.699219 "/>
<path fill-rule="evenodd" fill="rgb(100%, 100%, 100%)" fill-opacity="1" d="M 2265.980469 1089.699219 C 2307.941406 1098.550781 2338.949219 1075.898438 2365.921875 1063.238281 C 2379.25 1084.871094 2378.351562 1125.808594 2368.949219 1151.488281 C 2338.46875 1234.851562 2206.941406 1233.78125 2131.109375 1224.828125 C 2067.230469 1217.300781 2015.679688 1203.558594 1967.851562 1175.601562 C 1934.878906 1156.328125 1875.769531 1100 1914.410156 1039.699219 C 1928.589844 1041.441406 1961.410156 1060.628906 1994.929688 1054.828125 C 1992.460938 1045.859375 1958.691406 1026.640625 1950.421875 1020.800781 C 1903.011719 987.378906 1860.761719 951.839844 1829.109375 900.941406 C 1787.898438 834.660156 1760.558594 710.78125 1837.171875 669.5 C 1879.058594 646.929688 1928.480469 661.589844 1964.5 681.289062 C 2014.140625 708.429688 2072.871094 770.238281 2052.898438 827.769531 C 2037.738281 871.460938 1966.109375 855.03125 1933.640625 842.351562 C 1919.980469 837.019531 1889.761719 817.828125 1878.371094 817.988281 C 1876.46875 834.300781 1899.601562 859.738281 1908.488281 867.441406 C 1921.578125 878.769531 1939.980469 890.171875 1961.378906 896.941406 C 1992.179688 906.679688 2051.101562 908.429688 2080.378906 887.808594 C 2086.671875 883.378906 2085.828125 881.761719 2092.800781 878.421875 C 2117.890625 974.398438 2296.679688 1008.339844 2324.359375 840.820312 C 2331.300781 798.800781 2315.660156 739.921875 2290.261719 736.078125 C 2286.5 747.910156 2291.421875 798.109375 2286.53125 822.300781 C 2281.519531 847.148438 2268.941406 872 2255.101562 882.609375 C 2214.03125 914.109375 2155.378906 910.691406 2143.300781 854.820312 C 2124.808594 769.289062 2184.21875 690.808594 2243.621094 641.519531 C 2250.851562 635.519531 2264.058594 627.269531 2268.320312 620.421875 C 2252.351562 609.511719 2219.710938 621.449219 2205.039062 627.851562 C 2171.96875 642.269531 2143.230469 674.339844 2124.75 704.441406 C 2111.351562 726.269531 2111.550781 729.320312 2102.519531 749.148438 L 2097.921875 756.75 C 2089.289062 728.390625 2061.210938 693.28125 2044.371094 680.320312 C 2051.179688 644.269531 2087.179688 587.851562 2114.5 566 C 2121.421875 560.460938 2145.078125 543.660156 2147.679688 536.238281 C 2096.320312 517.859375 2021.710938 593.078125 2006.539062 647.53125 C 1988.140625 639.378906 1971.511719 624.660156 1948.179688 619.101562 C 1957.210938 581.488281 1985.988281 538.980469 2009.109375 514.21875 C 2025.179688 497.019531 2057.660156 472.628906 2061.039062 467.871094 C 2025.28125 448.769531 1967.320312 490.039062 1954.378906 505.320312 C 1913.378906 553.710938 1910.878906 594.289062 1902.929688 607.359375 C 1882.371094 607.28125 1869.289062 606.339844 1847.960938 607.980469 C 1852.53125 546.019531 1871.910156 485.589844 1900.480469 443.820312 C 1931.558594 398.351562 1976.101562 380.191406 2052.210938 379.5 C 2204.988281 378.109375 2325.980469 465.441406 2397.21875 572.121094 C 2447.53125 647.460938 2459.839844 744.699219 2443.621094 835.699219 C 2425.691406 936.261719 2383.621094 1017.070312 2299.171875 1066.398438 C 2289.210938 1072.21875 2268.980469 1077.238281 2265.980469 1089.699219 "/>
<path fill-rule="evenodd" fill="rgb(93.943787%, 81.054688%, 68.943787%)" fill-opacity="1" d="M 1547.261719 1359.03125 C 1555.898438 1349.421875 1562.859375 1340.339844 1568.671875 1325.449219 C 1586.359375 1280.121094 1584.398438 1232.339844 1572.558594 1186.109375 C 1528.351562 1013.5 1381.921875 1007.050781 1339.859375 1088.980469 C 1326.589844 1114.839844 1322.46875 1146.988281 1323.75 1179.371094 C 1325.660156 1227.640625 1334.21875 1240.800781 1337.558594 1270.410156 C 1315.648438 1274.839844 1301.300781 1277.511719 1281.371094 1285.019531 C 1272.828125 1288.230469 1265.890625 1291.359375 1257.558594 1295.609375 C 1249.550781 1299.699219 1242.429688 1304.378906 1234.960938 1307.558594 C 1231.699219 1301.460938 1225.238281 1273 1221.648438 1263.410156 C 1172.28125 1131.351562 1044.660156 1123.191406 996.421875 1208.710938 C 966.144531 1262.398438 981.046875 1343.089844 1003.171875 1395.820312 C 1010.96875 1414.421875 1022.820312 1435.371094 1035.21875 1449.878906 C 1069.789062 1490.328125 1086.988281 1487.820312 1122.761719 1500.121094 C 1124.441406 1518.03125 1126.761719 1529.148438 1129.378906 1545.109375 C 1090.269531 1556.039062 1039.929688 1553.859375 1003.769531 1532.949219 C 994.753906 1527.730469 980.292969 1515.589844 972.757812 1514.28125 C 950 1538.171875 944.941406 1649.78125 1002.519531 1675.828125 C 1031.359375 1688.871094 1049.25 1678.628906 1063.78125 1679.328125 C 1066.320312 1711.191406 1082.28125 1733.339844 1105.839844 1742.828125 C 1140.988281 1756.988281 1163.300781 1750.019531 1197.261719 1742.820312 C 1203.839844 1762.929688 1233.058594 1801.25 1244.75 1816.441406 C 1260.269531 1836.597656 1261.710938 1834.238281 1273.480469 1847.039062 C 1361.351562 1942.625 1545.261719 1971.628906 1611.800781 1803.039062 C 1641.878906 1726.839844 1631.558594 1664.039062 1629.289062 1590.988281 C 1662.109375 1588.320312 1683.691406 1570.390625 1695.980469 1548.5 C 1713.738281 1516.878906 1705.78125 1490.980469 1701.910156 1456.808594 C 1719.730469 1445.101562 1732.980469 1438.671875 1741.519531 1414.039062 C 1760.289062 1359.878906 1723.390625 1305.53125 1681.800781 1277.910156 C 1676.421875 1274.328125 1674.140625 1272.960938 1668.460938 1270.058594 C 1654.839844 1263.109375 1657.050781 1266.960938 1656.128906 1267.941406 C 1645.148438 1279.761719 1665.261719 1341.800781 1562.828125 1394.738281 C 1561.058594 1391.898438 1548.039062 1361.628906 1547.261719 1359.03125 Z M 1544.671875 1024.980469 L 1542.511719 1001.5 C 1559.710938 1001.101562 1573.890625 998.980469 1588.628906 993.21875 C 1604.941406 986.871094 1613.128906 978.121094 1623.828125 973.03125 C 1645.351562 997.128906 1664.53125 1000.5 1666.738281 1030.351562 C 1675.238281 1145.078125 1620.679688 1241.640625 1726.390625 1263.960938 C 1728.359375 1302.769531 1756.519531 1336.808594 1787.058594 1344.988281 C 1802.660156 1349.171875 1798.179688 1348.679688 1807.238281 1359.230469 C 1882.078125 1446.320312 1858.179688 1569.851562 1809.679688 1658.300781 C 1791.949219 1690.648438 1773.25 1716.640625 1751.890625 1742.121094 C 1746.511719 1748.539062 1741.050781 1754.320312 1735.988281 1760.691406 C 1733.171875 1764.230469 1731.089844 1766.921875 1727.941406 1769.921875 C 1707.21875 1789.609375 1716.691406 1790.621094 1696.851562 1828.730469 C 1620.410156 1975.566406 1475.148438 2031.921875 1320.929688 1967.980469 C 1307.28125 1962.316406 1274.851562 1944.363281 1274.121094 1944.132812 C 1246.738281 1935.449219 1190.921875 1937.808594 1101.460938 1902.308594 C 1001.21875 1862.527344 955.542969 1815.269531 933.148438 1716.640625 C 921.234375 1664.160156 928.839844 1677.261719 935.402344 1660.679688 C 942.242188 1643.421875 942.703125 1618.570312 939.203125 1599.328125 C 933.386719 1567.359375 922.839844 1562.859375 916.640625 1548.289062 C 937.554688 1539.25 947.914062 1504.21875 939.859375 1472.488281 C 932.078125 1441.828125 914.214844 1428.480469 894.867188 1414.101562 C 872.644531 1397.570312 858.976562 1387.210938 844.5 1361.140625 C 826.953125 1329.539062 831.632812 1315.820312 837.675781 1277.710938 C 868.410156 1274.199219 878.558594 1277.660156 904.285156 1262.019531 C 918.089844 1253.621094 937.914062 1233.769531 943.632812 1216.941406 C 950.640625 1222.328125 949.070312 1226.460938 956.589844 1232.019531 C 962.558594 1202.261719 953.605469 1187.730469 968.070312 1155.429688 C 988.972656 1108.761719 1045.128906 1099 1091.671875 1108.050781 C 1128.699219 1115.25 1140.351562 1125.230469 1161.398438 1130.519531 C 1157.671875 1111.550781 1133.699219 1084.078125 1120.710938 1071.53125 C 1117.019531 1067.960938 1107.601562 1058.578125 1103.828125 1055.800781 C 1153.980469 1013.328125 1227.210938 986.058594 1314.71875 988.53125 C 1313.179688 1007.210938 1300.75 1063.820312 1313.539062 1077.25 C 1329.761719 1055.328125 1348.75 995.378906 1406.679688 975.890625 C 1434.601562 966.5 1463.769531 969.710938 1488.128906 981.589844 C 1524.910156 999.511719 1529.921875 1019.410156 1544.671875 1024.980469 "/>
<path fill-rule="evenodd" fill="rgb(0%, 0%, 0%)" fill-opacity="1" d="M 1578.28125 1791.75 C 1548.179688 1762.929688 1488.460938 1760.199219 1446.578125 1779.449219 C 1421.75 1790.859375 1413.410156 1798.589844 1397.628906 1814.691406 C 1387.210938 1825.339844 1371.839844 1852.074219 1368.769531 1873.078125 C 1411.480469 1887.746094 1454.730469 1900.421875 1501.449219 1878.367188 C 1520.519531 1869.371094 1537.371094 1856.425781 1547.519531 1844.003906 C 1556.371094 1833.171875 1574.851562 1809.820312 1578.28125 1791.75 Z M 1592.871094 1587.480469 C 1586.761719 1589.261719 1587.730469 1594.191406 1580.378906 1608.878906 C 1548.539062 1672.570312 1476.871094 1697.5 1409.128906 1670.179688 C 1405.078125 1674.210938 1371.191406 1758.359375 1273.859375 1745.121094 C 1236.691406 1740.070312 1238.21875 1725.988281 1224.730469 1720.179688 C 1228.578125 1735.410156 1252.03125 1768.289062 1260.238281 1779.71875 C 1355.398438 1778.691406 1504.109375 1728.621094 1581.878906 1664.011719 C 1588.011719 1658.910156 1592.488281 1653.71875 1598.429688 1650.070312 C 1598.789062 1638.441406 1596.398438 1596.988281 1592.871094 1587.480469 Z M 1392.808594 1311 C 1286.570312 1300.050781 1211.71875 1364.46875 1179.839844 1430.410156 C 1159.25 1472.980469 1158.199219 1525.539062 1183.449219 1563.851562 C 1248.441406 1662.460938 1466.140625 1619.53125 1517.730469 1500.371094 C 1553.910156 1416.808594 1501.871094 1322.238281 1392.808594 1311 Z M 1174.800781 1296.128906 C 1148.371094 1282.949219 1143.941406 1326.078125 1164.390625 1338 C 1176.140625 1344.851562 1187.640625 1336.5 1189.011719 1324.589844 C 1190.648438 1310.480469 1185.398438 1301.421875 1174.800781 1296.128906 Z M 1190.660156 1265.511719 C 1182.269531 1241.78125 1162.929688 1216.941406 1131.601562 1216.730469 C 1046.769531 1216.148438 1081.910156 1403.148438 1135.410156 1429.789062 L 1148.078125 1401.308594 C 1129.101562 1381.289062 1107.738281 1338.808594 1111.980469 1295.960938 C 1114.078125 1274.691406 1123.960938 1259.109375 1139.851562 1252.621094 C 1162.488281 1243.378906 1177.28125 1257.589844 1190.660156 1265.511719 Z M 1395.980469 1222.628906 C 1369.730469 1210.480469 1365.859375 1257.519531 1387.191406 1266.5 C 1413.070312 1277.398438 1420.21875 1233.851562 1395.980469 1222.628906 Z M 1146.648438 1204.191406 C 1122.210938 1177.410156 1076.269531 1175.421875 1044.609375 1197.511719 C 964.269531 1253.558594 1030.03125 1470.179688 1125.070312 1469.660156 L 1130.261719 1445.328125 C 1127.460938 1441.988281 1121.609375 1436.839844 1117.539062 1432.609375 C 1066.539062 1379.738281 1051.039062 1280.410156 1081.929688 1231.050781 C 1095.441406 1209.46875 1113.148438 1201.570312 1146.648438 1204.191406 Z M 1490.480469 1299.238281 C 1493.28125 1242.691406 1472.890625 1168.710938 1420.128906 1143.441406 C 1385.570312 1126.878906 1347.289062 1134.710938 1354.320312 1198.011719 C 1365.320312 1184.191406 1372.789062 1169.359375 1401.828125 1179.011719 C 1419.609375 1184.921875 1430.558594 1198.019531 1439.339844 1212.21875 C 1464.050781 1252.160156 1448.808594 1279.730469 1467.949219 1288.808594 C 1473.511719 1291.449219 1485.921875 1298.800781 1490.480469 1299.238281 Z M 1529.710938 1334.050781 C 1552.058594 1316.320312 1554.800781 1253.710938 1550 1220.371094 C 1544.378906 1181.359375 1530.320312 1146.890625 1512.269531 1120.210938 C 1451.210938 1029.980469 1359.269531 1067.769531 1355.828125 1134.800781 C 1403.320312 1102.679688 1450.53125 1141.679688 1471.019531 1171.019531 C 1482.648438 1187.679688 1491.980469 1208.210938 1498.101562 1231.910156 C 1506.230469 1263.46875 1503.269531 1280.230469 1503.96875 1312 C 1516.460938 1317.730469 1520.601562 1325.980469 1529.710938 1334.050781 Z M 1547.261719 1359.03125 C 1548.039062 1361.628906 1561.058594 1391.898438 1562.828125 1394.738281 C 1665.261719 1341.800781 1645.148438 1279.761719 1656.128906 1267.941406 C 1657.050781 1266.960938 1654.839844 1263.109375 1668.460938 1270.058594 C 1674.140625 1272.960938 1676.421875 1274.328125 1681.800781 1277.910156 C 1723.390625 1305.53125 1760.289062 1359.878906 1741.519531 1414.039062 C 1732.980469 1438.671875 1719.730469 1445.101562 1701.910156 1456.808594 C 1705.78125 1490.980469 1713.738281 1516.878906 1695.980469 1548.5 C 1683.691406 1570.390625 1662.109375 1588.320312 1629.289062 1590.988281 C 1631.558594 1664.039062 1641.878906 1726.839844 1611.800781 1803.039062 C 1545.261719 1971.628906 1361.351562 1942.625 1273.480469 1847.039062 C 1261.710938 1834.238281 1260.269531 1836.597656 1244.75 1816.441406 C 1233.058594 1801.25 1203.839844 1762.929688 1197.261719 1742.820312 C 1163.300781 1750.019531 1140.988281 1756.988281 1105.839844 1742.828125 C 1082.28125 1733.339844 1066.320312 1711.191406 1063.78125 1679.328125 C 1049.25 1678.628906 1031.359375 1688.871094 1002.519531 1675.828125 C 944.941406 1649.78125 950 1538.171875 972.757812 1514.28125 C 980.292969 1515.589844 994.753906 1527.730469 1003.769531 1532.949219 C 1039.929688 1553.859375 1090.269531 1556.039062 1129.378906 1545.109375 C 1126.761719 1529.148438 1124.441406 1518.03125 1122.761719 1500.121094 C 1086.988281 1487.820312 1069.789062 1490.328125 1035.21875 1449.878906 C 1022.820312 1435.371094 1010.96875 1414.421875 1003.171875 1395.820312 C 981.046875 1343.089844 966.144531 1262.398438 996.421875 1208.710938 C 1044.660156 1123.191406 1172.28125 1131.351562 1221.648438 1263.410156 C 1225.238281 1273 1231.699219 1301.460938 1234.960938 1307.558594 C 1242.429688 1304.378906 1249.550781 1299.699219 1257.558594 1295.609375 C 1265.890625 1291.359375 1272.828125 1288.230469 1281.371094 1285.019531 C 1301.300781 1277.511719 1315.648438 1274.839844 1337.558594 1270.410156 C 1334.21875 1240.800781 1325.660156 1227.640625 1323.75 1179.371094 C 1322.46875 1146.988281 1326.589844 1114.839844 1339.859375 1088.980469 C 1381.921875 1007.050781 1528.351562 1013.5 1572.558594 1186.109375 C 1584.398438 1232.339844 1586.359375 1280.121094 1568.671875 1325.449219 C 1562.859375 1340.339844 1555.898438 1349.421875 1547.261719 1359.03125 "/>
<path fill-rule="evenodd" fill="rgb(78.90625%, 11.009216%, 15.989685%)" fill-opacity="1" d="M 2268.210938 1268.820312 C 2263.351562 1297.761719 2247.640625 1340.289062 2238.410156 1369.320312 C 2192.449219 1513.910156 2115.960938 1702.359375 2032.789062 1824.011719 C 2017.75 1846.003906 2016.761719 1838.929688 2030.839844 1864.820312 C 2039.101562 1880.023438 2044.941406 1894.550781 2052.570312 1910.109375 C 2060.761719 1926.816406 2088.789062 1988.175781 2092.609375 2003.152344 C 2084.011719 2002.953125 2031.339844 2001.847656 2027.460938 2000.007812 C 2024.828125 1998.761719 2003.839844 1966.332031 1999.96875 1960.746094 C 1987.410156 1942.621094 1954.171875 1901.972656 1939.269531 1885.5 L 1821 1766.488281 C 1814.558594 1760.941406 1809.660156 1755.390625 1803.261719 1749.640625 C 1805.410156 1744.289062 1830.890625 1708.191406 1837.359375 1697.488281 C 1847.78125 1680.261719 1858.191406 1660.589844 1866.820312 1640.851562 C 1884.75 1599.851562 1898.589844 1549.988281 1898.621094 1498.921875 C 1898.640625 1467.519531 1893.539062 1451.140625 1888.230469 1423.5 C 1886.339844 1413.679688 1919.789062 1307.378906 1925.101562 1287.539062 C 1930.96875 1265.558594 1936.539062 1239.980469 1943.738281 1218.21875 C 2016.859375 1255.390625 2088.191406 1269.761719 2174.621094 1272.808594 C 2209.25 1274.03125 2235.171875 1270.621094 2268.210938 1268.820312 "/>
<path fill-rule="evenodd" fill="rgb(78.90625%, 11.009216%, 15.989685%)" fill-opacity="1" d="M 1759.378906 1057.898438 L 1724.941406 1016.660156 C 1696.53125 984.988281 1675.820312 966.808594 1643.371094 941.21875 C 1568.820312 882.421875 1482.769531 836.039062 1377.519531 816.539062 C 1375.03125 800.75 1380.160156 782.078125 1375.390625 759.320312 C 1365.25 710.839844 1331.929688 681.289062 1286.28125 659.050781 C 1225.859375 629.609375 1141.601562 624.730469 1073.71875 646.769531 C 1007.96875 668.109375 963.449219 710.949219 935.753906 763.328125 C 921.898438 789.539062 908.636719 827.898438 910.59375 862.871094 C 912.355469 894.351562 932.652344 935.289062 956.152344 945.28125 C 953.710938 950.230469 927.4375 979.230469 917.667969 992.121094 C 855.335938 1074.339844 813.636719 1190.980469 796.804688 1294.070312 C 787.417969 1351.570312 787.351562 1395.949219 787.128906 1454.71875 C 763.4375 1453.160156 754.046875 1462.671875 731.140625 1430.460938 C 688.851562 1370.980469 699.589844 1288.648438 708.53125 1215.671875 C 736.832031 984.609375 840.597656 641.378906 1107.019531 601.941406 C 1238.441406 582.480469 1404.449219 630.191406 1518.648438 687.058594 C 1558.480469 706.898438 1592.828125 725.960938 1629.21875 746.75 C 1664.25 766.769531 1699.480469 791.769531 1730.640625 813.800781 C 1749.109375 826.851562 1742.960938 833.460938 1758.960938 869.640625 C 1782.078125 921.941406 1813.179688 967.910156 1856.851562 1003.339844 C 1860.75 1006.5 1866.039062 1008.949219 1869.160156 1012.320312 C 1871.480469 1014.820312 1872.210938 1013.570312 1871.199219 1017.789062 C 1869.640625 1024.359375 1868.921875 1022.011719 1865.089844 1022.25 C 1860.480469 1022.550781 1819.078125 1006.949219 1781.378906 1036.699219 C 1772.398438 1043.789062 1766.390625 1053.03125 1759.378906 1057.898438 "/>
<path fill-rule="evenodd" fill="rgb(100%, 100%, 100%)" fill-opacity="1" d="M 1449.328125 2194.277344 C 1509.621094 2157.953125 1566.441406 2162.347656 1608.109375 2209.105469 C 1640.691406 2245.667969 1664.03125 2315.996094 1655.398438 2381.039062 C 1643.160156 2473.3125 1576.230469 2452.289062 1539.828125 2403.640625 C 1529.449219 2389.769531 1533.210938 2356.796875 1517.371094 2315.101562 C 1508.628906 2292.085938 1488.769531 2258.1875 1464.328125 2255.832031 C 1469.410156 2279.949219 1483.789062 2289.132812 1490.75 2349.234375 C 1498.238281 2413.824219 1493.03125 2496.371094 1448.890625 2543.476562 C 1430.910156 2562.660156 1396.441406 2581.441406 1366.929688 2560.015625 C 1371.761719 2544.078125 1385.269531 2534.160156 1393.960938 2490.546875 C 1399.589844 2462.296875 1400.75 2429.847656 1398.28125 2400.304688 C 1395.128906 2362.722656 1384.519531 2318.527344 1364.628906 2287.925781 C 1358.539062 2278.550781 1350.320312 2265.246094 1338.171875 2263.960938 C 1340.21875 2301.53125 1364.988281 2340.453125 1354.058594 2448.410156 C 1351.179688 2476.917969 1344.660156 2506.585938 1332.261719 2528.339844 C 1321.789062 2546.710938 1299.820312 2571.941406 1267.96875 2564.617188 C 1241.359375 2558.5 1218.949219 2524.285156 1226.898438 2507.351562 C 1228.449219 2504.054688 1234.261719 2496.671875 1236.929688 2492.320312 C 1246.449219 2476.816406 1253.710938 2453.484375 1256.460938 2435.328125 C 1261.109375 2404.636719 1259.800781 2369.964844 1252.589844 2340.710938 C 1247.078125 2318.328125 1231.109375 2280.640625 1212 2279.753906 C 1206.839844 2294.703125 1246.761719 2436.132812 1172.878906 2495.285156 C 1153.550781 2510.769531 1122.5 2513.894531 1106 2494.882812 C 1091.488281 2478.160156 1091.148438 2448.074219 1092.648438 2421.414062 C 1094.371094 2390.84375 1092.640625 2364.058594 1090.488281 2333.773438 C 1088.851562 2310.757812 1079.070312 2314.128906 1042.800781 2292.035156 C 1027.230469 2282.550781 998.214844 2265.492188 987.371094 2254.921875 C 1003.019531 2232.007812 1042.609375 2202.921875 1074.429688 2186.320312 C 1108.460938 2168.570312 1149.71875 2155.734375 1192.769531 2149.414062 C 1288.210938 2135.414062 1370.289062 2146.824219 1449.328125 2194.277344 "/>
<path fill-rule="evenodd" fill="rgb(100%, 100%, 100%)" fill-opacity="1" d="M 708.832031 1470.210938 L 697.21875 1479.890625 C 608.402344 1554.808594 650.238281 1763.539062 784.039062 1825.351562 C 817.136719 1840.632812 859.789062 1850.367188 898.191406 1849.265625 C 912.941406 1848.839844 924.730469 1844.800781 938.554688 1843.351562 C 952.632812 1876.601562 1016.910156 1914.859375 1048.140625 1928.835938 C 1056.800781 1932.710938 1090.390625 1944.964844 1094.789062 1948.4375 C 1066.351562 1965.984375 1043.75 1988.550781 1021.730469 2009.121094 C 1000.179688 2029.253906 975.394531 2055.855469 957.898438 2079.296875 C 950.28125 2089.5 942.457031 2098.882812 934.933594 2109.902344 C 917.578125 2135.316406 907.710938 2153.410156 892.804688 2176.121094 C 879.109375 2167.539062 854.203125 2136.488281 842.539062 2124.84375 C 820.53125 2102.867188 787.492188 2053.761719 769.304688 2027.726562 C 693.054688 1918.570312 643.726562 1756.808594 636.113281 1617.640625 C 633.695312 1573.429688 634.808594 1528.621094 638.898438 1485.121094 C 642.972656 1441.808594 651.597656 1406.898438 659.230469 1366.421875 C 663.070312 1374.660156 663.828125 1387.628906 666.601562 1397.339844 C 669.414062 1407.199219 672.472656 1416.140625 677.066406 1425.191406 C 688.082031 1446.898438 696.234375 1455.070312 708.832031 1470.210938 "/>
<path fill-rule="evenodd" fill="rgb(93.943787%, 81.054688%, 68.943787%)" fill-opacity="1" d="M 1392.808594 1311 C 1501.871094 1322.238281 1553.910156 1416.808594 1517.730469 1500.371094 C 1466.140625 1619.53125 1248.441406 1662.460938 1183.449219 1563.851562 C 1158.199219 1525.539062 1159.25 1472.980469 1179.839844 1430.410156 C 1211.71875 1364.46875 1286.570312 1300.050781 1392.808594 1311 "/>
<path fill-rule="evenodd" fill="rgb(100%, 100%, 100%)" fill-opacity="1" d="M 2168.03125 2049.195312 C 2164.269531 2043.097656 2137.25 1977.425781 2131.871094 1964.746094 C 2118.609375 1933.484375 2098.351562 1889.851562 2082.96875 1858.535156 C 2073.570312 1839.40625 2077.21875 1848.453125 2104.519531 1800.050781 C 2171.410156 1681.421875 2212.828125 1589.359375 2261.929688 1461.738281 C 2268.898438 1443.640625 2287.851562 1381.488281 2294.878906 1370.660156 C 2341.410156 1581.578125 2317.621094 1797.53125 2209.550781 1983.507812 C 2196.929688 2005.234375 2182.859375 2030.765625 2168.03125 2049.195312 "/>
<path fill-rule="evenodd" fill="rgb(18.992615%, 38.989258%, 64.0625%)" fill-opacity="1" d="M 2058 2178.769531 L 2036.289062 2196.820312 C 2034.109375 2165.859375 2027.398438 2141.707031 2015.050781 2117.945312 C 1929.441406 1953.144531 1743.808594 2029.046875 1793.769531 2193.714844 C 1804.121094 2227.8125 1825.671875 2264.851562 1851.628906 2285.164062 C 1856.808594 2289.222656 1859.800781 2291.953125 1865.761719 2295.90625 C 1871 2299.382812 1877.890625 2302.226562 1881.808594 2306.597656 C 1876.640625 2310.695312 1854.648438 2323.066406 1849.570312 2322.796875 C 1841.140625 2322.347656 1824.71875 2306.890625 1819.621094 2301.878906 C 1770.949219 2254.070312 1748.761719 2146.457031 1734.859375 2078.574219 C 1731.320312 2061.242188 1697.660156 1914.296875 1698.601562 1911.1875 C 1699.480469 1908.28125 1716.019531 1884.949219 1719.191406 1879.8125 C 1742.378906 1842.191406 1738.519531 1838.855469 1752.660156 1809.929688 C 1756.199219 1802.699219 1771.050781 1786.550781 1776.609375 1782.320312 C 1789.328125 1790.261719 1809.078125 1811.429688 1820.949219 1822.039062 C 1841.578125 1840.492188 1883.558594 1885.046875 1903.089844 1908.382812 C 1957.828125 1973.792969 2044.570312 2081.742188 2058 2178.769531 "/>
<path fill-rule="evenodd" fill="rgb(78.90625%, 11.009216%, 15.989685%)" fill-opacity="1" d="M 1588.558594 945.46875 C 1572.890625 954.550781 1554.269531 961.421875 1531.621094 961.488281 C 1525.441406 957.859375 1519 941.480469 1515.148438 935.488281 C 1507.789062 924.019531 1503.421875 920.078125 1495.21875 911.371094 C 1455.289062 868.941406 1381.589844 872.949219 1346.210938 919.210938 C 1339.78125 927.628906 1335.050781 938.589844 1328.75 946.761719 C 1269 950.261719 1242.671875 944.480469 1177.691406 966.980469 C 1137.988281 980.730469 1089.300781 1008.140625 1068.890625 1032.148438 C 1046.859375 1028.769531 1020.621094 1008.171875 972.644531 1029.910156 C 947.109375 1041.480469 927.28125 1061.859375 920.429688 1094.300781 C 916.902344 1111 917.542969 1128.640625 920.417969 1145.609375 C 925.09375 1173.21875 931.539062 1165.941406 916.746094 1188.351562 C 903.488281 1208.441406 880.585938 1233.078125 846.316406 1235.410156 C 851.203125 1201.488281 871.03125 1148.589844 883.867188 1119.070312 C 927.972656 1017.628906 1001.339844 929.5 1109.578125 881.710938 C 1229.839844 828.621094 1370.570312 830.910156 1492.441406 887.300781 C 1523.851562 901.839844 1567.21875 926.210938 1588.558594 945.46875 "/>
<path fill-rule="evenodd" fill="rgb(100%, 100%, 100%)" fill-opacity="1" d="M 1160.320312 685.5 C 1147.308594 703.320312 1123.878906 745.390625 1114.109375 756.671875 L 1037.828125 721.988281 C 1027.640625 732.238281 980.191406 838.339844 974.144531 859.820312 L 1028.371094 872.078125 C 1030.671875 852.460938 1041.160156 813.699219 1047.800781 793.089844 C 1050.769531 783.859375 1052.140625 774.738281 1057.378906 770.410156 L 1127.53125 801.519531 C 1135.589844 791.039062 1142.5 779.460938 1150.269531 767.300781 C 1156.25 757.921875 1166.601562 739.449219 1173.71875 733.488281 C 1222.738281 756.25 1261.101562 799.078125 1267.320312 802.300781 L 1290.839844 747.800781 Z M 1349.019531 811.351562 C 1337.699219 813.148438 1284.960938 806.601562 1231.398438 814.210938 C 1147.558594 826.109375 1044.550781 865.878906 982.398438 922.921875 C 976.855469 928.019531 978.96875 927.441406 972.757812 930.898438 C 949.863281 921.351562 935.304688 892.019531 935.757812 857.75 C 936.175781 826.488281 947.628906 795.261719 959.140625 771.351562 C 982.152344 723.558594 1019.691406 686.011719 1076.089844 668.238281 C 1133.390625 650.179688 1211.648438 655.039062 1265.308594 676.179688 C 1318.601562 697.171875 1355.511719 736.488281 1349.019531 811.351562 "/>
<path fill-rule="evenodd" fill="rgb(78.90625%, 11.009216%, 15.989685%)" fill-opacity="1" d="M 1690.199219 2064.070312 C 1649.359375 2083.472656 1629.230469 2090.183594 1586.898438 2114.992188 C 1579.351562 2119.417969 1574.980469 2124.871094 1565.5 2123.519531 C 1526.730469 2118.003906 1498.539062 2122.515625 1462.761719 2140.128906 C 1444.878906 2148.929688 1456.921875 2147.269531 1419.128906 2131.996094 C 1403.570312 2125.707031 1387.859375 2120.820312 1371.191406 2116.710938 C 1356.628906 2113.117188 1330.148438 2110.953125 1318.421875 2106.214844 C 1309.570312 2082.160156 1298.550781 2031.53125 1295.390625 2003.496094 C 1319.570312 2009.734375 1339.078125 2024.324219 1389.871094 2035.089844 C 1497.378906 2057.867188 1588.53125 2024.277344 1663.558594 1950.851562 C 1671.078125 1960.023438 1688.078125 2046.128906 1690.199219 2064.070312 "/>
<path fill-rule="evenodd" fill="rgb(93.943787%, 81.054688%, 68.943787%)" fill-opacity="1" d="M 790.238281 1497.699219 L 801.027344 1564.421875 C 783.277344 1562.710938 742.433594 1564.261719 740.785156 1587.691406 C 753.300781 1592.78125 773.148438 1589 792.5625 1596.859375 C 816.195312 1606.429688 816.023438 1613.078125 823.066406 1627.488281 C 834.242188 1650.351562 850.167969 1674.019531 874.242188 1683.558594 C 875.71875 1684.148438 878.636719 1685.128906 879.796875 1685.730469 C 891.65625 1691.78125 887.90625 1714.53125 896.574219 1747.421875 C 901.835938 1767.390625 908.589844 1783.191406 914.632812 1800.960938 C 874.574219 1809.539062 813.394531 1791.269531 785.371094 1774.359375 C 713.464844 1730.980469 676.714844 1634.011719 696.789062 1557.839844 C 707.578125 1516.910156 738.546875 1487.621094 790.238281 1497.699219 "/>
<path fill-rule="evenodd" fill="rgb(96.09375%, 92.96875%, 33.006287%)" fill-opacity="1" d="M 1944.828125 2254.722656 C 1942.25 2240.179688 1901.289062 2218.515625 1877.199219 2165.859375 C 1869.378906 2148.761719 1867.808594 2135.273438 1858.609375 2132.632812 C 1833.789062 2173.570312 1892.21875 2263.605469 1944.828125 2254.722656 Z M 1903.609375 2062.445312 C 1966.511719 2076.261719 2010.820312 2153.367188 2005.601562 2216.691406 C 2004.839844 2225.96875 2002.429688 2226.972656 1996.238281 2231.496094 C 1983.21875 2241.011719 1928.421875 2283.039062 1919.511719 2284.582031 C 1905.46875 2287.007812 1863.671875 2251.40625 1858.78125 2245.523438 C 1843.21875 2226.792969 1831.980469 2207.761719 1823.890625 2177.03125 C 1806.988281 2112.894531 1834.101562 2047.179688 1903.609375 2062.445312 "/>
<path fill-rule="evenodd" fill="rgb(18.992615%, 38.989258%, 64.0625%)" fill-opacity="1" d="M 1251.230469 1984.101562 C 1255.621094 2002.089844 1256.941406 2026.515625 1260.511719 2045.832031 C 1264.089844 2065.207031 1269.5 2084.9375 1272.851562 2103.429688 C 1220.480469 2106.734375 1202.070312 2102.777344 1148.300781 2116.664062 C 1137.539062 2119.441406 1120.449219 2126.128906 1111.101562 2127.003906 C 1110.710938 2085.375 1110.75 2049.453125 1112.308594 2008.015625 C 1113.078125 1987.707031 1110.21875 1988.5 1123.851562 1979.21875 C 1153.558594 1958.976562 1141.351562 1962.996094 1181.359375 1971.554688 C 1204.699219 1976.542969 1227.199219 1979.734375 1251.230469 1984.101562 "/>
<path fill-rule="evenodd" fill="rgb(100%, 100%, 100%)" fill-opacity="1" d="M 1529.710938 1334.050781 C 1520.601562 1325.980469 1516.460938 1317.730469 1503.96875 1312 C 1503.269531 1280.230469 1506.230469 1263.46875 1498.101562 1231.910156 C 1491.980469 1208.210938 1482.648438 1187.679688 1471.019531 1171.019531 C 1450.53125 1141.679688 1403.320312 1102.679688 1355.828125 1134.800781 C 1359.269531 1067.769531 1451.210938 1029.980469 1512.269531 1120.210938 C 1530.320312 1146.890625 1544.378906 1181.359375 1550 1220.371094 C 1554.800781 1253.710938 1552.058594 1316.320312 1529.710938 1334.050781 "/>
<path fill-rule="evenodd" fill="rgb(78.90625%, 11.009216%, 15.989685%)" fill-opacity="1" d="M 1578.28125 1791.75 C 1574.851562 1809.820312 1556.371094 1833.171875 1547.519531 1844.003906 C 1537.371094 1856.425781 1520.519531 1869.371094 1501.449219 1878.367188 C 1454.730469 1900.421875 1411.480469 1887.746094 1368.769531 1873.078125 C 1371.839844 1852.074219 1387.210938 1825.339844 1397.628906 1814.691406 C 1413.410156 1798.589844 1421.75 1790.859375 1446.578125 1779.449219 C 1488.460938 1760.199219 1548.179688 1762.929688 1578.28125 1791.75 "/>
<path fill-rule="evenodd" fill="rgb(78.90625%, 11.009216%, 15.989685%)" fill-opacity="1" d="M 1290.839844 747.800781 L 1267.320312 802.300781 C 1261.101562 799.078125 1222.738281 756.25 1173.71875 733.488281 C 1166.601562 739.449219 1156.25 757.921875 1150.269531 767.300781 C 1142.5 779.460938 1135.589844 791.039062 1127.53125 801.519531 L 1057.378906 770.410156 C 1052.140625 774.738281 1050.769531 783.859375 1047.800781 793.089844 C 1041.160156 813.699219 1030.671875 852.460938 1028.371094 872.078125 L 974.144531 859.820312 C 980.191406 838.339844 1027.640625 732.238281 1037.828125 721.988281 L 1114.109375 756.671875 C 1123.878906 745.390625 1147.308594 703.320312 1160.320312 685.5 L 1290.839844 747.800781 "/>
<path fill-rule="evenodd" fill="rgb(100%, 100%, 100%)" fill-opacity="1" d="M 1146.648438 1204.191406 C 1113.148438 1201.570312 1095.441406 1209.46875 1081.929688 1231.050781 C 1051.039062 1280.410156 1066.539062 1379.738281 1117.539062 1432.609375 C 1121.609375 1436.839844 1127.460938 1441.988281 1130.261719 1445.328125 L 1125.070312 1469.660156 C 1030.03125 1470.179688 964.269531 1253.558594 1044.609375 1197.511719 C 1076.269531 1175.421875 1122.210938 1177.410156 1146.648438 1204.191406 "/>
<path fill-rule="evenodd" fill="rgb(18.992615%, 38.989258%, 64.0625%)" fill-opacity="1" d="M 1801.96875 2344.875 C 1788.101562 2354.460938 1721.699219 2376.171875 1700.738281 2380.082031 C 1709.75 2216.976562 1624.808594 2162.265625 1615.660156 2146.074219 C 1641.851562 2134.824219 1668.140625 2118.082031 1698.140625 2109.621094 C 1702.238281 2116.242188 1719 2208.300781 1732.128906 2243.910156 C 1746.148438 2281.90625 1764.839844 2315.390625 1795.78125 2339.105469 C 1799.039062 2341.609375 1800.289062 2343.050781 1801.96875 2344.875 "/>
<path fill-rule="evenodd" fill="rgb(100%, 100%, 100%)" fill-opacity="1" d="M 1592.871094 1587.480469 C 1596.398438 1596.988281 1598.789062 1638.441406 1598.429688 1650.070312 C 1592.488281 1653.71875 1588.011719 1658.910156 1581.878906 1664.011719 C 1504.109375 1728.621094 1355.398438 1778.691406 1260.238281 1779.71875 C 1252.03125 1768.289062 1228.578125 1735.410156 1224.730469 1720.179688 C 1238.21875 1725.988281 1236.691406 1740.070312 1273.859375 1745.121094 C 1371.191406 1758.359375 1405.078125 1674.210938 1409.128906 1670.179688 C 1476.871094 1697.5 1548.539062 1672.570312 1580.378906 1608.878906 C 1587.730469 1594.191406 1586.761719 1589.261719 1592.871094 1587.480469 "/>
<path fill-rule="evenodd" fill="rgb(46.99707%, 30.004883%, 19.993591%)" fill-opacity="1" d="M 1743.191406 1228.019531 C 1660.199219 1220.261719 1704.691406 1140.769531 1702.371094 1051.351562 C 1752.300781 1088.738281 1848.011719 1296.339844 1793.789062 1304.210938 C 1777.371094 1306.589844 1762.019531 1288.300781 1756.070312 1278.25 C 1744.519531 1258.699219 1746.011719 1252.121094 1743.191406 1228.019531 "/>
<path fill-rule="evenodd" fill="rgb(46.99707%, 30.004883%, 19.993591%)" fill-opacity="1" d="M 884.757812 1542.941406 C 897.195312 1559.660156 916.363281 1604.46875 905.054688 1632.160156 C 897.898438 1649.679688 879.136719 1646.621094 868.085938 1636.121094 C 828.066406 1598.058594 818.800781 1446.011719 823.957031 1389.941406 C 828.277344 1395.238281 832.5 1403.539062 836.808594 1409.019531 C 855.476562 1432.75 870.988281 1437.859375 889.648438 1453.820312 C 907.269531 1468.890625 920.355469 1508.601562 893.238281 1534.238281 L 884.757812 1542.941406 "/>
<path fill-rule="evenodd" fill="rgb(93.943787%, 81.054688%, 68.943787%)" fill-opacity="1" d="M 1858.839844 1064.328125 C 1857.421875 1105.410156 1864.929688 1142.648438 1890.339844 1172.730469 C 1902.449219 1187.070312 1899.339844 1184.410156 1894.808594 1207.5 C 1890.511719 1229.410156 1867.140625 1351.320312 1860.820312 1360.578125 C 1852.511719 1351.589844 1844.699219 1334.269531 1835.398438 1329.480469 C 1838.800781 1309.820312 1844.589844 1304.550781 1844.101562 1278.808594 C 1842.960938 1218.410156 1824.550781 1224.070312 1837.878906 1179.390625 C 1841.339844 1167.78125 1853.730469 1144.730469 1850.078125 1134.558594 C 1834.378906 1125.269531 1821.289062 1149.191406 1813.609375 1157.550781 L 1784.03125 1097.03125 C 1796.921875 1074.800781 1819.828125 1055.75 1858.839844 1064.328125 "/>
<path fill-rule="evenodd" fill="rgb(78.90625%, 11.009216%, 15.989685%)" fill-opacity="1" d="M 1067 2145.820312 C 1063.039062 2149.957031 1025.820312 2169.910156 1007.339844 2184.230469 C 998.195312 2191.320312 987.355469 2198.875 979.367188 2206.078125 C 970.097656 2214.4375 962.425781 2224 953.617188 2229.804688 C 946.800781 2225.863281 930.929688 2212.808594 926.476562 2207.074219 C 947.019531 2161.242188 1036.679688 2042.378906 1068.949219 2025.296875 L 1067 2145.820312 "/>
<path fill-rule="evenodd" fill="rgb(44.993591%, 75.976562%, 90.039062%)" fill-opacity="1" d="M 1190.660156 1265.511719 C 1177.28125 1257.589844 1162.488281 1243.378906 1139.851562 1252.621094 C 1123.960938 1259.109375 1114.078125 1274.691406 1111.980469 1295.960938 C 1107.738281 1338.808594 1129.101562 1381.289062 1148.078125 1401.308594 L 1135.410156 1429.789062 C 1081.910156 1403.148438 1046.769531 1216.148438 1131.601562 1216.730469 C 1162.929688 1216.941406 1182.269531 1241.78125 1190.660156 1265.511719 "/>
<path fill-rule="evenodd" fill="rgb(44.993591%, 75.976562%, 90.039062%)" fill-opacity="1" d="M 1490.480469 1299.238281 C 1485.921875 1298.800781 1473.511719 1291.449219 1467.949219 1288.808594 C 1448.808594 1279.730469 1464.050781 1252.160156 1439.339844 1212.21875 C 1430.558594 1198.019531 1419.609375 1184.921875 1401.828125 1179.011719 C 1372.789062 1169.359375 1365.320312 1184.191406 1354.320312 1198.011719 C 1347.289062 1134.710938 1385.570312 1126.878906 1420.128906 1143.441406 C 1472.890625 1168.710938 1493.28125 1242.691406 1490.480469 1299.238281 "/>
<path fill-rule="evenodd" fill="rgb(18.992615%, 38.989258%, 64.0625%)" fill-opacity="1" d="M 2110.171875 2047.21875 L 2129.828125 2099.714844 C 2124.039062 2108.769531 2117.148438 2114.382812 2111.050781 2122.34375 C 2104.648438 2130.6875 2097.800781 2135.554688 2092.449219 2143.855469 C 2085.78125 2136.359375 2077.878906 2104.140625 2073.109375 2092.371094 C 2066.449219 2075.984375 2055.808594 2057.527344 2050.589844 2042.792969 L 2110.171875 2047.21875 "/>
<path fill-rule="evenodd" fill="rgb(0%, 0%, 0%)" fill-opacity="1" d="M 1944.828125 2254.722656 C 1892.21875 2263.605469 1833.789062 2173.570312 1858.609375 2132.632812 C 1867.808594 2135.273438 1869.378906 2148.761719 1877.199219 2165.859375 C 1901.289062 2218.515625 1942.25 2240.179688 1944.828125 2254.722656 "/>
<path fill-rule="evenodd" fill="rgb(100%, 100%, 100%)" fill-opacity="1" d="M 1395.980469 1222.628906 C 1420.21875 1233.851562 1413.070312 1277.398438 1387.191406 1266.5 C 1365.859375 1257.519531 1369.730469 1210.480469 1395.980469 1222.628906 "/>
<path fill-rule="evenodd" fill="rgb(100%, 100%, 100%)" fill-opacity="1" d="M 1174.800781 1296.128906 C 1185.398438 1301.421875 1190.648438 1310.480469 1189.011719 1324.589844 C 1187.640625 1336.5 1176.140625 1344.851562 1164.390625 1338 C 1143.941406 1326.078125 1148.371094 1282.949219 1174.800781 1296.128906 "/>
<path fill-rule="evenodd" fill="rgb(96.09375%, 96.09375%, 96.09375%)" fill-opacity="1" d="M 1686.320312 2438.660156 C 1687.808594 2431.914062 1697.738281 2431.4375 1704.648438 2429.742188 C 1725.25 2424.683594 1749.671875 2417.121094 1769.25 2410.203125 C 1797.75 2400.125 1822.308594 2388.636719 1849.339844 2378.367188 C 1846.140625 2382.304688 1847.808594 2381.148438 1841.050781 2384.476562 C 1818.761719 2395.464844 1795.351562 2403.847656 1772.011719 2413.011719 C 1759.621094 2417.878906 1742.128906 2423.644531 1730.300781 2426.808594 C 1715.058594 2430.886719 1701.761719 2435.339844 1686.320312 2438.660156 "/>
</svg>
