<svg xmlns="http://www.w3.org/2000/svg"  viewBox="0 0 30 30" width="30px" height="30px"><path fill="#f76d6d" d="M5.479,15.976C4.861,15.384,3.5,13.868,3.5,12C3.5,9.303,7.454,1.504,15,1.504S26.5,9.303,26.5,12 c0,1.868-1.361,3.384-1.979,3.976l-3.03,1.275c-0.063-1.466-0.43-4.683-2.357-6.678C18.061,9.463,16.67,8.9,15,8.9 s-3.061,0.563-4.133,1.673c-1.928,1.995-2.294,5.212-2.357,6.678L5.479,15.976z"/><path fill="#ab3434" d="M15,2.004c7.099,0,11,7.508,11,9.996c0,1.643-1.248,3.044-1.761,3.551l-2.298,0.968 c-0.155-1.705-0.685-4.468-2.448-6.293C18.322,9.014,16.811,8.4,15,8.4s-3.322,0.614-4.492,1.826 c-1.763,1.825-2.293,4.588-2.448,6.293l-2.298-0.968C5.248,15.044,4,13.643,4,12C4,9.512,7.901,2.004,15,2.004 M15,1.004 C7.211,1.004,3,9.075,3,12c0,2.481,2.153,4.343,2.2,4.4L9,18c0,0-0.297-8.6,6-8.6s6,8.6,6,8.6l3.8-1.6 c0.047-0.057,2.2-1.919,2.2-4.4C27,9.075,22.789,1.004,15,1.004L15,1.004z"/><path fill="#deb974" d="M24.052,22.5c-0.087,0-0.353,0-0.503-0.037l-0.152-0.041l-0.49-5.428l0.06-0.067 c0.896-1.054,2.097-1.427,2.853-1.427c0.836,0,1.682,0.827,1.682,2.409c0,2.231-1.612,4.591-3.137,4.591H24.052z"/><path fill="#967a44" d="M25.818,16C26.405,16,27,16.656,27,17.909C27,19.977,25.49,22,24.364,22h-0.312 c-0.078,0-0.142-0.001-0.192-0.003l-0.436-4.834C24.252,16.247,25.311,16,25.818,16 M25.818,15c-0.862,0-2.223,0.416-3.231,1.6 l-0.197,0.229l0.54,5.984l0.499,0.135C23.595,22.99,23.813,23,24.052,23h0.312C26.203,23,28,20.392,28,17.909 C28,15.997,26.899,15,25.818,15L25.818,15z"/><path fill="#967a44" d="M22.5,18h2c0.55,0,1,0.45,1,1v0c0,0.55-0.45,1-1,1h-2c-0.55,0-1-0.45-1-1v0	C21.5,18.45,21.95,18,22.5,18z"/><path fill="#deb974" d="M5.637,22.5c-1.524,0-3.137-2.359-3.137-4.591c0-1.582,0.846-2.409,1.682-2.409 c0.756,0,1.956,0.373,2.851,1.424l0.062,0.07l-0.49,5.427L6.44,22.466C6.301,22.5,6.035,22.5,5.948,22.5H5.637z"/><path fill="#967a44" d="M4.182,16c0.506,0,1.562,0.247,2.394,1.163L6.14,21.996C6.089,21.999,6.026,22,5.948,22H5.636 C4.51,22,3,19.977,3,17.909C3,16.656,3.595,16,4.182,16 M4.182,15C3.101,15,2,15.997,2,17.909C2,20.392,3.797,23,5.636,23h0.312 c0.239,0,0.457-0.01,0.623-0.052l0.499-0.135l0.54-5.984L7.413,16.6C6.405,15.416,5.044,15,4.182,15L4.182,15z"/><path fill="#967a44" d="M5.5,18h2c0.55,0,1,0.45,1,1v0c0,0.55-0.45,1-1,1h-2c-0.55,0-1-0.45-1-1v0C4.5,18.45,4.95,18,5.5,18z"/><path fill="#f5ce85" d="M15,28.5c-1.768,0-2.601-0.502-3.482-1.033c-0.253-0.153-0.509-0.309-0.798-0.458 c-0.157-0.083-0.35-0.169-0.563-0.264C7.697,25.645,6.5,23.863,6.5,21.3c0-0.811,0.022-1.695,0.187-2.676 c0.05-0.298,0.128-0.662,0.202-1.007c0.136-0.631,0.212-0.998,0.212-1.217c0-0.49-0.29-2.372-0.634-3.407 C7.079,12.294,9.569,9.9,15,9.9c5.428,0,7.919,2.392,8.533,3.093c-0.344,1.036-0.634,2.917-0.634,3.407 c0,0.219,0.076,0.586,0.212,1.217c0.074,0.345,0.152,0.709,0.202,1.008c0.164,0.979,0.187,1.864,0.187,2.675 c0,2.563-1.197,4.345-3.659,5.447c-0.211,0.093-0.403,0.179-0.563,0.263c-0.287,0.148-0.543,0.304-0.791,0.453 C17.601,27.998,16.768,28.5,15,28.5z"/><path fill="#967a44" d="M15,10.4L15,10.4c4.851,0,7.198,1.907,7.973,2.714C22.657,14.215,22.4,15.875,22.4,16.4 c0,0.27,0.076,0.638,0.222,1.32c0.072,0.337,0.149,0.695,0.198,0.987C22.978,19.652,23,20.511,23,21.3 c0,3.123-1.92,4.344-3.359,4.988c-0.225,0.099-0.428,0.191-0.592,0.277c-0.284,0.148-0.538,0.3-0.824,0.472 C17.368,27.554,16.629,28,15,28c-1.629,0-2.369-0.446-3.265-0.987c-0.245-0.148-0.499-0.3-0.78-0.446 c-0.168-0.088-0.371-0.18-0.591-0.277C8.92,25.644,7,24.423,7,21.3c0-0.789,0.022-1.648,0.18-2.593 c0.049-0.293,0.126-0.65,0.198-0.987C7.524,17.038,7.6,16.669,7.6,16.4c0-0.524-0.257-2.184-0.574-3.285 C7.808,12.302,10.155,10.4,15,10.4 M15,9.4c-6.708,0-9.1,3.5-9.1,3.5c0.355,0.848,0.7,2.998,0.7,3.5 c0,0.304-0.285,1.414-0.407,2.142C6.019,19.587,6,20.522,6,21.3c0,3.802,2.511,5.256,3.955,5.903 c0.202,0.089,0.384,0.17,0.534,0.249c0.28,0.146,0.528,0.296,0.769,0.441C12.16,28.437,13.092,29,15,29 c1.908,0,2.84-0.563,3.742-1.107c0.241-0.145,0.489-0.295,0.769-0.441c0.151-0.079,0.333-0.16,0.534-0.249 C21.489,26.556,24,25.102,24,21.3c0-0.778-0.019-1.713-0.194-2.758C23.685,17.814,23.4,16.704,23.4,16.4 c0-0.502,0.345-2.652,0.7-3.5C24.1,12.9,21.708,9.4,15,9.4L15,9.4z"/><path fill="#fff" d="M18.5,15c0.829,0,1.5,0.895,1.5,2s-0.671,2-1.5,2c-0.829,0-1.5-0.895-1.5-2S17.671,15,18.5,15z"/><path fill="#4e7ab5" d="M18.003,16.016c0.553,0,1.003,0.671,1.003,1.5c0,0.829-0.449,1.5-1.003,1.5	c-0.553,0-1.003-0.671-1.003-1.5C17,16.687,17.449,16.016,18.003,16.016z"/><path fill="#36404d" d="M17.673,16.854c0.372,0,0.673,0.481,0.673,1.073c0,0.592-0.302,1.073-0.673,1.073	C17.302,19,17,18.519,17,17.927C17,17.335,17.302,16.854,17.673,16.854z"/><path fill="#4d3e40" d="M24 20c-.831-2.117-2-2.72-2-2.72V13h2C24 13 24 18.703 24 20zM16 22c.415 0 .8.126 1.12.343.059-.167.148-.318.246-.462 2.364-.243 4.004-1.006 4.446-1.874C21.94 20.286 22 20.759 22 21c0 .875-.424 1.611-1.012 1.882C20.99 22.922 21 22.96 21 23c0 1.105-.895 2-2 2-.415 0-.8-.126-1.12-.343C17.608 25.437 16.873 26 16 26c-1.105 0-2-.895-2-2C14 22.895 14.895 22 16 22z"/><path fill="#fff" d="M13,17c0,1.105-0.671,2-1.5,2S10,18.105,10,17s0.671-2,1.5-2S13,15.895,13,17z"/><path fill="#4e7ab5" d="M13,17.516c0,0.829-0.449,1.5-1.003,1.5c-0.553,0-1.003-0.671-1.003-1.5c0-0.829,0.449-1.5,1.003-1.5	C12.551,16.016,13,16.687,13,17.516z"/><path fill="#36404d" d="M13,17.927C13,18.519,12.698,19,12.327,19s-0.673-0.481-0.673-1.073c0-0.592,0.302-1.073,0.673-1.073	S13,17.335,13,17.927z"/><path fill="#4d3e40" d="M6 20c.831-2.117 2-2.72 2-2.72V13H6C6 13 6 18.703 6 20zM14 22c-.415 0-.8.126-1.12.343-.059-.167-.148-.318-.246-.462-2.364-.243-4.004-1.006-4.446-1.874C8.06 20.286 8 20.759 8 21c0 .875.424 1.611 1.012 1.882C9.01 22.922 9 22.96 9 23c0 1.105.895 2 2 2 .415 0 .8-.126 1.12-.343C12.392 25.437 13.127 26 14 26c1.105 0 2-.895 2-2C16 22.895 15.105 22 14 22z"/><path fill="#fff7d1" d="M15 17.5A3.5 3 0 1 0 15 23.5A3.5 3 0 1 0 15 17.5Z"/><path fill="#ba9b48" d="M15,18c1.654,0,3,1.121,3,2.5S16.654,23,15,23s-3-1.121-3-2.5S13.346,18,15,18 M15,17 c-2.206,0-4,1.57-4,3.5s1.794,3.5,4,3.5s4-1.57,4-3.5S17.206,17,15,17L15,17z"/><path fill="#fff" d="M15,3c2.209,0,4,1.791,4,4c0,2.209-1.791,4-4,4V3z"/><path fill="#f76d6d" d="M15,5l1-1c0,0,2.213,3.554,2.188,3.625C18.162,7.695,17,8,17,8l-1.117-2.797L15,6V5z"/><g><path fill="#4d3e40" d="M19,14c-1.318,0-3,1-3,1s1.298-3,3-3c1.494,0,2,3,2,3S20.004,14,19,14z"/></g><path fill="#fff" d="M15,3c-2.209,0-4,1.791-4,4c0,2.209,1.791,4,4,4V3z"/><path fill="#f76d6d" d="M15,5l-1-1c0,0-2.213,3.554-2.188,3.625C11.838,7.695,13,8,13,8l1.117-2.797L15,6V5z"/><g><path fill="#ffcaca" d="M6.936,14.51C6.713,14.5,6.4,14.262,6.12,13.828C6.077,13.771,5.5,13.063,5.5,12 c0.063-0.549,2.3-4.5,9.5-4.5s9.437,3.951,9.501,4.514c-0.001,1.049-0.576,1.755-0.582,1.762c-0.304,0.462-0.602,0.7-0.877,0.723 c-0.135-0.082-0.421-0.433-0.612-0.754C20.379,11.05,17.263,10.5,15,10.5s-5.379,0.55-7.376,3.168 C7.368,14.084,7.06,14.456,6.936,14.51z"/><path fill="#ab3434" d="M15,8L15,8c6.519,0,8.771,3.313,8.999,4.067c-0.023,0.829-0.461,1.385-0.461,1.385h0l-0.042,0.049 l-0.035,0.054c-0.117,0.181-0.221,0.292-0.302,0.358c-0.099-0.121-0.215-0.282-0.3-0.424l-0.05-0.077l-0.035-0.046 C21.097,11.164,18.409,10,15,10c-3.409,0-6.097,1.164-7.794,3.393L7.17,13.439l-0.029,0.049c-0.086,0.143-0.201,0.305-0.301,0.426 c-0.08-0.066-0.184-0.177-0.302-0.358l-0.035-0.054l-0.042-0.049c-0.005-0.005-0.438-0.552-0.461-1.385C6.229,11.313,8.481,8,15,8 M15,7C7.295,7,5,11.343,5,12c0,1.277,0.7,2.1,0.7,2.1C6.083,14.691,6.535,15,7,15c0.406,0,1-1,1-1c0.382-0.5,2.202-3,7-3 c4.798,0,6.618,2.5,7,3c0,0,0.594,1,1,1c0.465,0,0.917-0.309,1.3-0.9c0,0,0.7-0.823,0.7-2.1C25,11.343,22.705,7,15,7L15,7z"/></g><g><path fill="#4d3e40" d="M11,14c1.318,0,3,1,3,1s-1.298-3-3-3c-1.494,0-2,3-2,3S9.996,14,11,14z"/></g></svg>